<svg width="329" height="87" viewBox="0 0 329 87" fill="none" xmlns="http://www.w3.org/2000/svg">
<rect x="0.562012" y="74.896" width="308.96" height="11.4757" rx="5.73783" fill="#68E1FD"/>
<path d="M35.926 57H39.094V40.962H33.792V43.8H35.926V57ZM42.1367 48.772C42.1367 53.458 43.5447 56.956 48.0767 56.956C52.6087 56.956 54.0167 53.458 54.0167 48.772C54.0167 44.13 52.6087 40.654 48.0767 40.654C43.5447 40.654 42.1367 44.13 42.1367 48.772ZM50.9807 48.772C50.9807 51.632 50.6727 54.096 48.0767 54.096C45.4807 54.096 45.1727 51.632 45.1727 48.772C45.1727 46.022 45.4807 43.514 48.0767 43.514C50.6727 43.514 50.9807 46.022 50.9807 48.772ZM56.3594 48.772C56.3594 53.458 57.7674 56.956 62.2994 56.956C66.8314 56.956 68.2394 53.458 68.2394 48.772C68.2394 44.13 66.8314 40.654 62.2994 40.654C57.7674 40.654 56.3594 44.13 56.3594 48.772ZM65.2034 48.772C65.2034 51.632 64.8954 54.096 62.2994 54.096C59.7034 54.096 59.3954 51.632 59.3954 48.772C59.3954 46.022 59.7034 43.514 62.2994 43.514C64.8954 43.514 65.2034 46.022 65.2034 48.772ZM70.23 44.9C70.23 47.21 71.726 48.486 73.728 48.486C75.73 48.486 77.226 47.21 77.226 44.9C77.226 42.612 75.73 41.336 73.728 41.336C71.726 41.336 70.23 42.612 70.23 44.9ZM73.706 43.184C74.476 43.184 74.96 43.69 74.96 44.9C74.96 46.11 74.476 46.638 73.706 46.638C72.958 46.638 72.496 46.11 72.496 44.9C72.496 43.69 72.958 43.184 73.706 43.184ZM72.716 57H75.708L84.354 41.6H81.34L72.716 57ZM79.888 53.678C79.888 56.01 81.384 57.264 83.386 57.264C85.366 57.264 86.84 56.01 86.84 53.678C86.84 51.368 85.366 50.114 83.386 50.114C81.384 50.114 79.888 51.368 79.888 53.678ZM83.364 51.962C84.112 51.962 84.596 52.468 84.596 53.678C84.596 54.91 84.112 55.416 83.364 55.416C82.594 55.416 82.11 54.91 82.11 53.678C82.11 52.468 82.594 51.962 83.364 51.962ZM100.268 52.424C100.268 53.634 99.6964 54.404 98.5524 54.404C97.3864 54.404 96.7924 53.612 96.7704 52.314H93.6904C93.6904 55.416 95.7144 57.154 98.5964 57.154C101.434 57.154 103.37 55.46 103.37 52.424V41.644H100.268V52.424ZM118.733 50.906C118.733 47.056 115.983 44.614 112.463 44.614C108.943 44.614 106.193 47.056 106.193 50.906C106.193 54.734 108.855 57.198 112.375 57.198C115.917 57.198 118.733 54.734 118.733 50.906ZM109.317 50.906C109.317 48.464 110.791 47.298 112.419 47.298C114.047 47.298 115.565 48.464 115.565 50.906C115.565 53.326 114.003 54.514 112.375 54.514C110.725 54.514 109.317 53.326 109.317 50.906ZM124.073 46.594V40.72H120.993V57H124.073V55.262C124.821 56.318 126.185 57.198 128.099 57.198C131.223 57.198 133.665 54.668 133.665 50.862C133.665 47.056 131.223 44.614 128.099 44.614C126.251 44.614 124.821 45.472 124.073 46.594ZM130.519 50.862C130.519 53.172 128.957 54.492 127.285 54.492C125.635 54.492 124.073 53.216 124.073 50.906C124.073 48.596 125.635 47.32 127.285 47.32C128.957 47.32 130.519 48.552 130.519 50.862ZM151.881 52.556C151.881 47.144 144.005 48.86 144.005 45.78C144.005 44.526 144.907 43.932 146.117 43.976C147.437 43.998 148.251 44.79 148.317 45.802H151.705C151.507 43.03 149.351 41.424 146.205 41.424C143.037 41.424 140.793 43.096 140.793 45.868C140.771 51.434 148.691 49.432 148.691 52.754C148.691 53.854 147.833 54.624 146.381 54.624C144.951 54.624 144.137 53.81 144.049 52.578H140.749C140.793 55.482 143.257 57.154 146.447 57.154C149.945 57.154 151.881 54.976 151.881 52.556ZM166.057 44.812H162.955V51.522C162.955 53.48 161.899 54.536 160.227 54.536C158.599 54.536 157.521 53.48 157.521 51.522V44.812H154.441V51.962C154.441 55.306 156.487 57.154 159.325 57.154C160.843 57.154 162.185 56.494 162.955 55.46V57H166.057V44.812ZM168.304 50.906C168.304 54.734 170.812 57.198 174.332 57.198C177.368 57.198 179.414 55.482 180.074 52.886H176.752C176.378 53.986 175.586 54.558 174.31 54.558C172.594 54.558 171.45 53.282 171.45 50.906C171.45 48.53 172.594 47.232 174.31 47.232C175.586 47.232 176.4 47.892 176.752 48.926H180.074C179.414 46.198 177.368 44.614 174.332 44.614C170.812 44.614 168.304 47.078 168.304 50.906ZM187.567 47.144C189.151 47.144 190.427 48.156 190.471 49.762H184.685C184.927 48.09 186.093 47.144 187.567 47.144ZM193.353 53.172H190.031C189.635 53.986 188.909 54.646 187.589 54.646C186.049 54.646 184.817 53.634 184.663 51.83H193.573C193.639 51.434 193.661 51.038 193.661 50.642C193.661 47.012 191.175 44.614 187.655 44.614C184.046 44.614 181.538 47.056 181.538 50.906C181.538 54.734 184.113 57.198 187.655 57.198C190.669 57.198 192.693 55.416 193.353 53.172ZM205.369 53.524C205.281 49.058 198.527 50.444 198.527 48.222C198.527 47.518 199.121 47.056 200.265 47.056C201.475 47.056 202.223 47.694 202.311 48.64H205.259C205.083 46.22 203.301 44.614 200.353 44.614C197.339 44.614 195.535 46.242 195.535 48.266C195.535 52.732 202.421 51.346 202.421 53.524C202.421 54.228 201.761 54.778 200.551 54.778C199.319 54.778 198.461 54.074 198.351 53.15H195.249C195.381 55.416 197.515 57.198 200.573 57.198C203.543 57.198 205.369 55.614 205.369 53.524ZM217.357 53.524C217.269 49.058 210.515 50.444 210.515 48.222C210.515 47.518 211.109 47.056 212.253 47.056C213.463 47.056 214.211 47.694 214.299 48.64H217.247C217.071 46.22 215.289 44.614 212.341 44.614C209.327 44.614 207.523 46.242 207.523 48.266C207.523 52.732 214.409 51.346 214.409 53.524C214.409 54.228 213.749 54.778 212.539 54.778C211.307 54.778 210.449 54.074 210.339 53.15H207.237C207.369 55.416 209.503 57.198 212.561 57.198C215.531 57.198 217.357 55.614 217.357 53.524ZM235.863 52.556C235.863 47.144 227.987 48.86 227.987 45.78C227.987 44.526 228.889 43.932 230.099 43.976C231.419 43.998 232.233 44.79 232.299 45.802H235.687C235.489 43.03 233.333 41.424 230.187 41.424C227.019 41.424 224.775 43.096 224.775 45.868C224.753 51.434 232.673 49.432 232.673 52.754C232.673 53.854 231.815 54.624 230.363 54.624C228.933 54.624 228.119 53.81 228.031 52.578H224.731C224.775 55.482 227.239 57.154 230.429 57.154C233.927 57.154 235.863 54.976 235.863 52.556ZM237.742 50.906C237.742 54.734 240.25 57.198 243.77 57.198C246.806 57.198 248.852 55.482 249.512 52.886H246.19C245.816 53.986 245.024 54.558 243.748 54.558C242.032 54.558 240.888 53.282 240.888 50.906C240.888 48.53 242.032 47.232 243.748 47.232C245.024 47.232 245.838 47.892 246.19 48.926H249.512C248.852 46.198 246.806 44.614 243.77 44.614C240.25 44.614 237.742 47.078 237.742 50.906ZM263.538 50.906C263.538 47.056 260.788 44.614 257.268 44.614C253.748 44.614 250.998 47.056 250.998 50.906C250.998 54.734 253.66 57.198 257.18 57.198C260.722 57.198 263.538 54.734 263.538 50.906ZM254.122 50.906C254.122 48.464 255.596 47.298 257.224 47.298C258.852 47.298 260.37 48.464 260.37 50.906C260.37 53.326 258.808 54.514 257.18 54.514C255.53 54.514 254.122 53.326 254.122 50.906ZM268.877 50.928C268.877 48.574 269.977 47.87 271.803 47.87H272.617V44.636C270.923 44.636 269.647 45.45 268.877 46.704V44.812H265.797V57H268.877V50.928ZM279.928 47.144C281.512 47.144 282.788 48.156 282.832 49.762H277.046C277.288 48.09 278.454 47.144 279.928 47.144ZM285.714 53.172H282.392C281.996 53.986 281.27 54.646 279.95 54.646C278.41 54.646 277.178 53.634 277.024 51.83H285.934C286 51.434 286.022 51.038 286.022 50.642C286.022 47.012 283.536 44.614 280.016 44.614C276.408 44.614 273.9 47.056 273.9 50.906C273.9 54.734 276.474 57.198 280.016 57.198C283.03 57.198 285.054 55.416 285.714 53.172Z" fill="#F8B630"/>
<path d="M95.3494 10.4868L88.3454 9.46888L85.2144 3.12141C85.1289 2.94762 84.9882 2.80693 84.8144 2.72141C84.3785 2.50625 83.8489 2.68555 83.631 3.12141L80.5 9.46888L73.496 10.4868C73.3029 10.5144 73.1263 10.6054 72.9912 10.7433C72.8277 10.9113 72.7377 11.1373 72.7408 11.3716C72.7439 11.6059 72.8399 11.8294 73.0077 11.993L78.0752 16.9336L76.878 23.91C76.8499 24.0723 76.8679 24.2392 76.9298 24.3918C76.9918 24.5444 77.0953 24.6766 77.2285 24.7734C77.3618 24.8702 77.5195 24.9277 77.6838 24.9394C77.848 24.9511 78.0123 24.9166 78.158 24.8397L84.4227 21.5459L90.6874 24.8397C90.8584 24.9307 91.0571 24.961 91.2474 24.9279C91.7274 24.8452 92.0501 24.39 91.9674 23.91L90.7702 16.9336L95.8377 11.993C95.9756 11.8578 96.0666 11.6813 96.0942 11.4882C96.1687 11.0054 95.8321 10.5585 95.3494 10.4868Z" fill="#F8B630"/>
<path d="M130.659 10.4863L123.655 9.4684L120.524 3.12092C120.438 2.94713 120.298 2.80644 120.124 2.72093C119.688 2.50576 119.158 2.68506 118.941 3.12092L115.81 9.4684L108.806 10.4863C108.612 10.5139 108.436 10.6049 108.301 10.7429C108.137 10.9108 108.047 11.1368 108.05 11.3711C108.053 11.6054 108.149 11.8289 108.317 11.9925L113.385 16.9331L112.188 23.9095C112.159 24.0718 112.177 24.2387 112.239 24.3913C112.301 24.5439 112.405 24.6761 112.538 24.7729C112.671 24.8697 112.829 24.9272 112.993 24.9389C113.158 24.9506 113.322 24.9161 113.468 24.8392L119.732 21.5454L125.997 24.8392C126.168 24.9302 126.367 24.9605 126.557 24.9274C127.037 24.8447 127.36 24.3895 127.277 23.9095L126.08 16.9331L131.147 11.9925C131.285 11.8573 131.376 11.6808 131.404 11.4877C131.478 11.0049 131.142 10.558 130.659 10.4863Z" fill="#F8B630"/>
<path d="M165.969 10.4863L158.965 9.4684L155.834 3.12092C155.748 2.94713 155.607 2.80644 155.434 2.72093C154.998 2.50576 154.468 2.68506 154.25 3.12092L151.119 9.4684L144.115 10.4863C143.922 10.5139 143.745 10.6049 143.61 10.7429C143.447 10.9108 143.357 11.1368 143.36 11.3711C143.363 11.6054 143.459 11.8289 143.627 11.9925L148.694 16.9331L147.497 23.9095C147.469 24.0718 147.487 24.2387 147.549 24.3913C147.611 24.5439 147.714 24.6761 147.848 24.7729C147.981 24.8697 148.139 24.9272 148.303 24.9389C148.467 24.9506 148.631 24.9161 148.777 24.8392L155.042 21.5454L161.307 24.8392C161.478 24.9302 161.676 24.9605 161.867 24.9274C162.347 24.8447 162.669 24.3895 162.587 23.9095L161.389 16.9331L166.457 11.9925C166.595 11.8573 166.686 11.6808 166.713 11.4877C166.788 11.0049 166.451 10.558 165.969 10.4863Z" fill="#F8B630"/>
<path d="M201.279 10.4863L194.275 9.4684L191.144 3.12092C191.058 2.94713 190.917 2.80644 190.744 2.72093C190.308 2.50576 189.778 2.68506 189.56 3.12092L186.429 9.4684L179.425 10.4863C179.232 10.5139 179.056 10.6049 178.92 10.7429C178.757 10.9108 178.667 11.1368 178.67 11.3711C178.673 11.6054 178.769 11.8289 178.937 11.9925L184.004 16.9331L182.807 23.9095C182.779 24.0718 182.797 24.2387 182.859 24.3913C182.921 24.5439 183.024 24.6761 183.158 24.7729C183.291 24.8697 183.449 24.9272 183.613 24.9389C183.777 24.9506 183.942 24.9161 184.087 24.8392L190.352 21.5454L196.617 24.8392C196.788 24.9302 196.986 24.9605 197.177 24.9274C197.657 24.8447 197.979 24.3895 197.897 23.9095L196.699 16.9331L201.767 11.9925C201.905 11.8573 201.996 11.6808 202.023 11.4877C202.098 11.0049 201.761 10.558 201.279 10.4863Z" fill="#F8B630"/>
<path d="M236.588 10.4863L229.584 9.4684L226.453 3.12092C226.368 2.94713 226.227 2.80644 226.053 2.72093C225.617 2.50576 225.088 2.68506 224.87 3.12092L221.739 9.4684L214.735 10.4863C214.542 10.5139 214.365 10.6049 214.23 10.7429C214.067 10.9108 213.976 11.1368 213.98 11.3711C213.983 11.6054 214.079 11.8289 214.246 11.9925L219.314 16.9331L218.117 23.9095C218.089 24.0718 218.107 24.2387 218.169 24.3913C218.231 24.5439 218.334 24.6761 218.467 24.7729C218.601 24.8697 218.758 24.9272 218.923 24.9389C219.087 24.9506 219.251 24.9161 219.397 24.8392L225.661 21.5454L231.926 24.8392C232.097 24.9302 232.296 24.9605 232.486 24.9274C232.966 24.8447 233.289 24.3895 233.206 23.9095L232.009 16.9331L237.076 11.9925C237.214 11.8573 237.305 11.6808 237.333 11.4877C237.407 11.0049 237.071 10.558 236.588 10.4863Z" fill="#F8B630"/>
</svg>
