<svg width="36" height="42" viewBox="0 0 36 42" fill="none" xmlns="http://www.w3.org/2000/svg">
<path d="M0 26.2615C1.2146 26.1934 2.24234 25.645 3.08321 24.6163C3.92409 23.5875 4.34453 22.3647 4.34453 20.9476C4.34453 22.3647 4.76496 23.5875 5.60584 24.6163C6.44672 25.645 7.47445 26.1934 8.68905 26.2615C7.47445 26.3296 6.44672 26.8781 5.60584 27.9068C4.76496 28.9355 4.34453 30.1584 4.34453 31.5754C4.34453 30.1584 3.92409 28.9355 3.08321 27.9068C2.24234 26.8781 1.2146 26.3296 0 26.2615ZM4.34453 10.5651C6.70365 10.4289 8.70365 9.3627 10.3445 7.36659C11.9854 5.37048 12.8058 2.98945 12.8058 0.223511C12.8058 2.98945 13.6292 5.37048 15.2759 7.36659C16.9226 9.3627 18.9255 10.4289 21.2847 10.5651C19.7314 10.6469 18.3066 11.1612 17.0102 12.1082C15.7139 13.0552 14.6891 14.3087 13.9358 15.8688C13.1825 17.4289 12.8058 19.1218 12.8058 20.9476C12.8058 18.1681 11.9854 15.7768 10.3445 13.7739C8.70365 11.771 6.70365 10.7014 4.34453 10.5651ZM10.546 34.0484C12.3212 33.953 13.8277 33.1525 15.0657 31.6469C16.3036 30.1413 16.9226 28.3462 16.9226 26.2615C16.9226 28.3462 17.5387 30.1413 18.7708 31.6469C20.0029 33.1525 21.5066 33.953 23.2818 34.0484C21.5066 34.1438 20.0029 34.9443 18.7708 36.4499C17.5387 37.9555 16.9226 39.7506 16.9226 41.8353C16.9226 39.7506 16.3036 37.9555 15.0657 36.4499C13.8277 34.9443 12.3212 34.1438 10.546 34.0484ZM23.2818 23.7068C25.0569 23.6114 26.5577 22.8143 27.7839 21.3155C29.0102 19.8167 29.6234 18.0182 29.6234 15.9199C29.6234 18.0046 30.2423 19.7997 31.4803 21.3053C32.7183 22.8109 34.2248 23.6114 36 23.7068C34.2248 23.8021 32.7183 24.5992 31.4803 26.098C30.2423 27.5968 29.6234 29.3885 29.6234 31.4732C29.6234 29.3885 29.0102 27.5968 27.7839 26.098C26.5577 24.5992 25.0569 23.8021 23.2818 23.7068Z" fill="#F8B630"/>
</svg>
